<svg width="17" height="17" viewBox="0 0 17 17" fill="none" xmlns="http://www.w3.org/2000/svg">
<path fill-rule="evenodd" clip-rule="evenodd" d="M11.1768 5.83333L10.9138 6.49715L9.74971 9.4355L9.17863 10.877L7.7433 14.5H9.51748L10.245 12.5326H13.8317L14.572 14.5H16.41L12.9765 5.83333H11.2378H11.1768ZM11.0286 10.4348L10.7939 11.0632H11.5136H13.2956L12.0448 7.7136L11.0286 10.4348ZM9.93719 5.34224C9.9639 5.27481 9.99571 5.21045 10.0321 5.14954H6.82906V2.5H5.33597V5.14954H0.950775V6.49715H4.72463C3.76059 8.29015 2.1617 10.0146 0.409973 10.9283C0.739157 11.2138 1.22118 11.7391 1.4563 12.0931C2.96115 11.1795 4.31315 9.72912 5.33597 8.07316V13.1667H6.82906V8.01606C7.22948 8.65256 7.67745 9.26169 8.16207 9.82292L8.72993 8.38955C8.21188 7.79052 7.75628 7.14699 7.39337 6.49715H9.47965L9.93719 5.34224Z" fill="white"/>
</svg>
